<?xml version="1.0" encoding="UTF-8" standalone="no"?>
<!-- Generator: Adobe Illustrator 19.0.0, SVG Export Plug-In . SVG Version: 6.00 Build 0)  -->

<svg
   xmlns:dc="http://purl.org/dc/elements/1.1/"
   xmlns:cc="http://creativecommons.org/ns#"
   xmlns:rdf="http://www.w3.org/1999/02/22-rdf-syntax-ns#"
   xmlns:svg="http://www.w3.org/2000/svg"
   xmlns="http://www.w3.org/2000/svg"
   xmlns:sodipodi="http://sodipodi.sourceforge.net/DTD/sodipodi-0.dtd"
   xmlns:inkscape="http://www.inkscape.org/namespaces/inkscape"
   version="1.1"
   id="Capa_1"
   x="0px"
   y="0px"
   fill="#FFFFFF"
   viewBox="0 0 512 512"
   style="enable-background:new 0 0 512 512;"
   xml:space="preserve"
   sodipodi:docname="exit.svg"
   inkscape:version="0.92.4 (5da689c313, 2019-01-14)"><metadata
   id="metadata49"><rdf:RDF><cc:Work
       rdf:about=""><dc:format>image/svg+xml</dc:format><dc:type
         rdf:resource="http://purl.org/dc/dcmitype/StillImage" /><dc:title></dc:title></cc:Work></rdf:RDF></metadata><defs
   id="defs47" /><sodipodi:namedview
   pagecolor="#ffffff"
   bordercolor="#666666"
   borderopacity="1"
   objecttolerance="10"
   gridtolerance="10"
   guidetolerance="10"
   inkscape:pageopacity="0"
   inkscape:pageshadow="2"
   inkscape:window-width="640"
   inkscape:window-height="480"
   id="namedview45"
   showgrid="false"
   inkscape:zoom="0.4609375"
   inkscape:cx="293.8822"
   inkscape:cy="297.8865"
   inkscape:window-x="0"
   inkscape:window-y="0"
   inkscape:window-maximized="0"
   inkscape:current-layer="Capa_1" />
<g
   id="g6">
	<g
   id="g4">
		<path
   d="m 256.85,468.625 h 191.363 c 11.737,0 21.262,-9.526 21.262,-21.262 V 64.638 c 0,-11.737 -9.526,-21.262 -21.262,-21.262 H 256.85 c -11.758,0 -21.262,-9.504 -21.262,-21.262 0,-11.758 9.504,-21.264 21.262,-21.264 H 448.213 C 483.381,0.85 512,29.47 512,64.638 v 382.724 c 0,35.168 -28.619,63.787 -63.787,63.787 H 256.85 c -11.758,0 -21.262,-9.504 -21.262,-21.262 0,-11.758 9.504,-21.262 21.262,-21.262 z"
   id="path2"
   inkscape:connector-curvature="0" />
	</g>
</g>
<g
   id="g12">
	<g
   id="g10">
		<path
   d="M 6.336,240.861 135.612,113.286 c 8.335,-8.25 21.815,-8.143 30.065,0.213 8.25,8.356 8.165,21.815 -0.213,30.065 l -92.385,91.173 h 247.559 c 11.758,0 21.262,9.504 21.262,21.262 0,11.758 -9.504,21.263 -21.262,21.263 H 73.079 l 92.385,91.173 c 8.377,8.25 8.441,21.709 0.213,30.065 -4.167,4.21 -9.653,6.336 -15.139,6.336 -5.401,0 -10.801,-2.041 -14.926,-6.124 L 6.336,271.137 C 2.296,267.14 0,261.696 0,255.998 0,250.302 2.275,244.88 6.336,240.861 Z"
   id="path8"
   inkscape:connector-curvature="0" />
	</g>
</g>
<g
   id="g14">
</g>
<g
   id="g16">
</g>
<g
   id="g18">
</g>
<g
   id="g20">
</g>
<g
   id="g22">
</g>
<g
   id="g24">
</g>
<g
   id="g26">
</g>
<g
   id="g28">
</g>
<g
   id="g30">
</g>
<g
   id="g32">
</g>
<g
   id="g34">
</g>
<g
   id="g36">
</g>
<g
   id="g38">
</g>
<g
   id="g40">
</g>
<g
   id="g42">
</g>
</svg>